/* XPM */
static char *_25f10e4e39f47c1ed542d5c8c9b03c6accZlszs8GX8vkoN[] = {
/* columns rows colors chars-per-pixel */
"32 32 116 2 ",
"   c #1C1C1A",
".  c #1D1C1B",
"X  c #232321",
"o  c #32312F",
"O  c #33322E",
"+  c #33322F",
"@  c #34332F",
"#  c #333230",
"$  c #343330",
"%  c #353330",
"&  c #343331",
"*  c #353432",
"=  c #4C000F",
"-  c #403E3A",
";  c #403F3A",
":  c #62202D",
">  c #44423D",
",  c #4B4A45",
"<  c #4C4A45",
"1  c #4D4B46",
"2  c #4D4B47",
"3  c #4D4C47",
"4  c #4E4D48",
"5  c #514F49",
"6  c #514F4B",
"7  c #51504A",
"8  c #51504B",
"9  c #52504A",
"0  c #50504F",
"q  c #54534C",
"w  c gray32",
"e  c #535352",
"r  c #555554",
"t  c #575655",
"y  c #5C5A53",
"u  c #5D5B54",
"i  c #5E5C55",
"p  c #595958",
"a  c gray35",
"s  c #5A5958",
"d  c #66655E",
"f  c #69685F",
"g  c #606060",
"h  c #616160",
"j  c #676766",
"k  c #686766",
"l  c #6B6A61",
"z  c #686866",
"x  c #6B6A68",
"c  c #7A786E",
"v  c #747471",
"b  c #7C7A70",
"n  c #797979",
"m  c gray48",
"M  c #7C7C7C",
"N  c gray49",
"B  c #88001B",
"V  c #EC1C24",
"C  c #CC5300",
"Z  c #FF7F27",
"A  c #838383",
"S  c #848484",
"D  c #868686",
"F  c #888888",
"G  c #898989",
"H  c #8D8D8D",
"J  c #8E8E8E",
"K  c #909090",
"L  c gray57",
"P  c #929292",
"I  c gray58",
"U  c #959595",
"Y  c #989898",
"T  c gray60",
"R  c gray61",
"E  c #9D9D9D",
"W  c gray62",
"Q  c #9F9F9F",
"!  c gray63",
"~  c gray64",
"^  c #A4A4A4",
"/  c #A5A5A5",
"(  c gray65",
")  c #A7A7A7",
"_  c gray66",
"`  c #AAAAAA",
"'  c gray67",
"]  c gray68",
"[  c #AFAFAF",
"{  c #B1B1B1",
"}  c #B2B2B2",
"|  c gray70",
" . c #B4B4B4",
".. c gray71",
"X. c #B7B7B7",
"o. c gray72",
"O. c #B9B9B9",
"+. c gray73",
"@. c #BBBBBB",
"#. c #BCBCBC",
"$. c gray74",
"%. c gray75",
"&. c #C0C0C0",
"*. c #C1C1C1",
"=. c gray76",
"-. c #C5C5C5",
";. c #C6C6C6",
":. c gray78",
">. c gray79",
",. c #CACACA",
"<. c #D0D0D0",
"1. c #D8D8D8",
"2. c gray85",
"3. c gainsboro",
"4. c #DFDFDF",
"5. c #E4E4E4",
/* pixels */
"i $ i i i i i b $ $ 1 i i i i b $ i i i i i i i i i $ b i i i i ",
"i $ i i i i i b $ $ $ i i i 1 i b 1 i i i i i i i 1 $ i i i i i ",
"i $ i i Z Z i i b $ $ 1 i 1 $ i i $ i i i i i i 1 $ $ 1 i i i i ",
"1 b 1 Z B B Z i i $ $ $ 1 $ $ i i $ 1 i i i 1 1 $ $ b $ 1 i i i ",
"b i c C = = C i 1 $ $ $ $ $ b 1 1 $ $ 1 1 b $ $ $ b i b b 1 1 1 ",
"i i y B : : B 1 $ b $ $ $ b i b b b $ $ b i $ $ b i i i i b b $ ",
"i i , : T : P $ b i b $ b i i i i i b $ i i $ $ i i i i i i i $ ",
"1 i + P ~ E P $ i i i $ b i i i B i i b i i $ $ 1 i i B i i 1 $ ",
"$ 1 c I ~ P $ $ i i i $ i i i y B B i b 1 1 $ $ i i B B i i i $ ",
"$ $ y I ~ P b $ 1 i 1 $ i i i y B B 3 4 + # $ # 4 1 B B i i i $ ",
"$ $ y I ~ P i b $ 1 $ $ 1 i i 1 D I F I E `  .` I F I n i i 1 $ ",
"b $ y T ) I i i $ $ $ d $ 8 6 N T T )  .o.&.,.&.} ) T D 1 1 $ b ",
"i $ y ~ } E i 1 d * &.$.$.&.$.N ) ) } P ,.,.,.,.$.F ) ) n $ b i ",
"1 $ y ~ $.E 1 $ $.&.5.4.4.5.1.I }  .$.V ,.,.} ,.;.V } } n $ i i ",
"$ i y ) ,.` # } 4.5.1.4.5.1.<.,.&.&.;.B ,.} I } ;.B &.$.n $ 1 1 ",
"$ i y ) ,.,.[ <.1.1.<.1.1.<.,.,.,.,.,.,.,.I ,.I ,.,.,.,.N $ b b ",
"b 1 y ) ,.,.,.,.<.<.,.<.<.,.,.,.,.,.,.,.,.,.,.,.,.,.,.,.F b i i ",
"i b 1 z $.,.,.,.,.,.,.,.,.,.,.,.,.,.,.,.,.,.,.,.,.,.,.,.P i i i ",
"i i b + ) ,.,.,.,.,.,.,.,.,.,.,.,.,.,.,.,.,.,.,.,.,.,.,.I i i i ",
"i i i c h $.,.,.,.,.,.,.,.,.,.,.,.,.,.,.,.,.,.,.,.,.,.,.E 1 i i ",
"i i i i + E ;.,.,.,.;.,.,.,.,.,.,.,.,.,.,.,.,.,.,.,.,.$.v $ i i ",
"i i i 1 + r [ ;.;.&.o.&.;.,.,.,.,.,.,.,.,.,.;.,.,.,.;.E i $ 1 i ",
"1 1 1 b $ + D o.o.` ) ) } o.o.o.o.o.&.;.;.&.` &.;.;.} x 1 $ $ 1 ",
"b $ b 8 l f N ` ` P D s h h h j j k ~  . .E w ~  . .I 8 8 b $ $ ",
"i $ 6 + + + s J J A 0         + + + s T I r   w T I r + @ 8 $ b ",
"i $ - + + + + s w 0 > >       + + + + s r +   > s r + + + $ $ b ",
"i $ u - - - - - X q - - q X X - - - - - - @ X - - - - - - i $ i ",
"i $ i i i i i i $ i i i i b $ i i i i i 1 $ $ 1 i i i i i 1 $ i ",
"1 $ 1 i i i i 1 $ i i i i b $ 1 i i i 1 $ $ $ $ i i i i 1 $ b 1 ",
"$ $ $ 1 i 1 1 $ $ i i i i i b $ 1 1 1 b b b b b 1 1 1 1 $ $ i b ",
"b $ $ b b b $ $ $ i i i i i i $ $ b b i i i i i b $ $ $ $ b i i ",
"i $ b i i i b $ $ 1 i i i i i $ $ i i i i i i i i b $ $ b i i i "
};
