/* XPM */
static char *_1bf007306ff4148fa1a4c56d7f1222cPgP8Iv4ENXzPE4nF[] = {
/* columns rows colors chars-per-pixel */
"32 32 104 2 ",
"   c gray18",
".  c #312E2C",
"X  c #3D3936",
"o  c #4A4643",
"O  c #4B4643",
"+  c #4C4744",
"@  c #4D4744",
"#  c #4D4845",
"$  c #4E4945",
"%  c #4E4946",
"&  c #4F4A47",
"*  c #58524E",
"=  c #59534F",
"-  c #565554",
";  c #000000",
":  c #585757",
">  c #595858",
",  c gray36",
"<  c #5F5F5E",
"1  c #605E5D",
"2  c #666565",
"3  c #6C6A69",
"4  c #717171",
"5  c #727272",
"6  c gray45",
"7  c #747474",
"8  c gray47",
"9  c #797979",
"0  c gray48",
"q  c #7C7C7C",
"w  c gray49",
"e  c gray50",
"r  c #808080",
"t  c #818181",
"y  c #838383",
"u  c #848484",
"i  c #868686",
"p  c #888888",
"a  c #898989",
"s  c gray54",
"d  c #8B8B8B",
"f  c gray55",
"g  c #8D8D8D",
"h  c #8E8E8E",
"j  c gray57",
"k  c #929292",
"l  c gray58",
"z  c #959595",
"x  c gray59",
"c  c #979797",
"v  c #989898",
"b  c gray60",
"n  c gray61",
"m  c #9D9D9D",
"M  c gray62",
"N  c #9F9F9F",
"B  c gray63",
"V  c #A2A2A2",
"C  c gray64",
"Z  c #A4A4A4",
"A  c #A5A5A5",
"S  c gray65",
"D  c #A7A7A7",
"F  c gray66",
"G  c #AAAAAA",
"H  c gray67",
"J  c gray68",
"K  c #AFAFAF",
"L  c #B1B1B1",
"P  c #B2B2B2",
"I  c gray70",
"U  c #B4B4B4",
"Y  c gray71",
"T  c #B7B7B7",
"R  c gray72",
"E  c #B9B9B9",
"W  c gray73",
"Q  c #BBBBBB",
"!  c #BCBCBC",
"~  c gray74",
"^  c gray",
"/  c gray75",
"(  c #C0C0C0",
")  c #C1C1C1",
"_  c gray76",
"`  c #C3C3C3",
"'  c #C5C5C5",
"]  c #C6C6C6",
"[  c gray78",
"{  c gray79",
"}  c #CACACA",
"|  c #D0D0D0",
" . c #D8D8D8",
".. c gray85",
"X. c gainsboro",
"o. c #DDDDDD",
"O. c gray87",
"+. c #DFDFDF",
"@. c #E4E4E4",
"#. c gray96",
"$. c gray98",
"%. c #FDFDFD",
"&. c #FEFEFE",
"*. c white",
/* pixels */
"; ; ; ; ; ; ; ; ; ; ; ; ; ; ; ; *.*.*.*.*.*.*.*.*.*.*.*.*.*.*.*.",
"; ; ; ; ; ; ; ; ; ; ; ; ; ; ; ; *.*.*.*.*.*.*.*.*.*.*.*.*.*.*.*.",
"; ; ; ; ; ; ; ; ; ; ; ; ; ; ; ; *.*.*.*.*.*.*.*.*.*.~ ~ *.*.*.*.",
"; ; ; ; ; ; ; ; ; ; ; ; ; ; ; ; *.*.*.*.*.*.*.*.*.~ 7 7 R *.*.*.",
"; ; ; ; ; ; ; ; ; ; ; ; ; ; ; ; *.*.*.*.*.*.*.*.*.5 q r 5 $.*.*.",
"; ; ; ; ; ; ; ; ; ; ; ; ; ; ; ; *.*.*.*.*.*.*.*.*.9 f f 9 $.*.*.",
"; ; ; ; ; ; ; ; ; ; ; ; ; ; ; ; *.*.*.*.*.*.*.*.*.f b b f $.*.*.",
"; ; ; ; o ; ; ; ; ; ; ; ; ; ; o *.*.*.*.*.*.*.*.*.z m V z $.*.*.",
"; ; ; ; 9 o ; ; ; ; ; ; ; ; o 9 #.*.*.*.*.*.*.*.*.*.z V z $.*.*.",
"; ; ; ; 9 r o + & & & & + o r q #.*.*.*.*.*.*.*.*.*.z V z $.*.*.",
"; ; ; ; 9 z p z G T G m z p z u ~ *.*.*.*.*.*.*.*.*.z V z $.*.*.",
"; ; ; o u b D I ( } ( R T D b b q ( ( ( ( ( *.*.*.*.b D b $.*.*.",
"; ; ; 9 D D p ~ } } } } k I D D q ~ ( ~ ~ ( ( ( *.*.V I V $.*.*.",
"; ; ; 9 I I   [ } I } }   ~ T I z ..@.o.o.@.( ~ ( *.V ~ V $.*.*.",
"; ; ; 9 ~ ( , [ I z I } , [ ( ( } | ..@.o...@.o.I ~ K } D $.*.*.",
"; ; ; q } } } } z } z } } } } } } } | ....| ....| K } } D $.*.*.",
"*.*.*.f } } } } } } } } } } } } } } } | | } | | } } } } D = ; ; ",
"*.*.*.z } } } } } } } } } } } } } } } } } } } } } } } ~ 3 = ; ; ",
"*.*.*.b } } } } } } } } } } } } } } } } } } } } } } } D = ; ; ; ",
"*.*.*.V } } } } } } } } } } } } } } } } } } } } } } ~ 3 = ; ; ; ",
"*.*.*.m ~ } } } } } } } } } } } } } } } } [ } } } [ m = ; ; ; ; ",
"*.*.*.*.V [ } } } [ } } } } } } } } } [ ( R ( [ [ K 1 = ; ; ; ; ",
"*.*.*.*.m T [ [ ( G ( [ [ ( R R R R R I D D G R R u = ; ; ; ; ; ",
"*.*.*.o.o.z T T V 5 m T T V r r 2 2 2 2 , u k G G q + & & ; ; ; ",
"*.*.o.f p 5 z b 5 p 5 z b 5 p p . . . . . - r f f > . . . & ; ; ",
"*.*.K p p p 5 5 p p p 5 5 p p p . . . . . . - : : . . . . X = ; ",
"*.*.*.K K K K K K K K K K K K K X X X X X X X X X X X X X = ; ; ",
"*.*.*.*.*.*.*.*.*.*.*.*.*.*.*.*.; ; ; ; ; ; ; ; ; ; ; ; ; ; ; ; ",
"*.*.*.*.*.*.*.*.*.*.*.*.*.*.*.*.; ; ; ; ; ; ; ; ; ; ; ; ; ; ; ; ",
"*.*.*.*.*.*.*.*.*.*.*.*.*.*.*.*.; ; ; ; ; ; ; ; ; ; ; ; ; ; ; ; ",
"*.*.*.*.*.*.*.*.*.*.*.*.*.*.*.*.; ; ; ; ; ; ; ; ; ; ; ; ; ; ; ; ",
"*.*.*.*.*.*.*.*.*.*.*.*.*.*.*.*.; ; ; ; ; ; ; ; ; ; ; ; ; ; ; ; "
};
