/* XPM */
static char *result[] = {
/* columns rows colors chars-per-pixel */
"32 32 91 1 ",
"  c black",
". c #8C031C",
"X c #8F081B",
"o c #92051C",
"O c #9D061D",
"+ c #930A1C",
"@ c #9B0D1D",
"# c #97101C",
"$ c #9B121D",
"% c #A1071D",
"& c #A40B1E",
"* c #AA0B1E",
"= c #B40C1F",
"- c #B90E1F",
"; c #A3141E",
": c #A9151E",
"> c #A51A1E",
", c #A91D1E",
"< c #B4171F",
"1 c #B31C1F",
"2 c #AA211E",
"3 c #B3251F",
"4 c #B52B1F",
"5 c #BB0F20",
"6 c #BE1120",
"7 c #BA1B20",
"8 c #B12420",
"9 c #BF2420",
"0 c #B62D20",
"q c #BA2C20",
"w c #B53020",
"e c #BC3220",
"r c #C11220",
"t c #CE1421",
"y c #C31B21",
"u c #C91B21",
"i c #D31522",
"p c #DA1722",
"a c #D01921",
"s c #DF1823",
"d c #E41A23",
"f c #EC1C24",
"g c #C62321",
"h c #C12C21",
"j c #CA2D22",
"k c #D02822",
"l c #DC2823",
"z c #C43421",
"x c #CA3622",
"c c #C43A21",
"v c #CC3C22",
"b c #D53022",
"n c #DB3423",
"m c #D33D22",
"M c #DC3823",
"N c #E72523",
"B c #EC2324",
"V c #ED2D24",
"C c #F02F25",
"Z c #E13923",
"A c #F13525",
"S c #F23A25",
"D c #C74021",
"F c #CA4322",
"G c #D54322",
"H c #DB4523",
"J c #D34C23",
"K c #DC4A23",
"L c #D65223",
"P c #DC5223",
"I c #E34324",
"U c #E24E24",
"Y c #ED4F25",
"T c #F34325",
"R c #F44C25",
"E c #E35224",
"W c #EC5225",
"Q c #E15A24",
"! c #EC5B25",
"~ c #F65426",
"^ c #F85626",
"/ c #F55C26",
"( c #F85C26",
") c #EB6425",
"_ c #ED6A25",
"` c #F56425",
"' c #FA6326",
"] c #F46D26",
"[ c #FB6B26",
"{ c #FD7527",
"} c #FE7A27",
/* pixels */
"                                ",
"                                ",
"          f'}~d  [{^=&          ",
"       &  f'{^5  {}St:  B       ",
"      ,&  f^}^5  }{fs;  'V      ",
"     {z&  f[{R5  }[ff:  'f^     ",
"    B{Q&  S[{R*  }'Vf1  ~iR}    ",
"   Tdv!8  ^[[Io  {'Rf1  b&q_{   ",
"   Ai;FH  W^'Ro  //,10  lO$w'   ",
"  4Ni;F'  qS'^o  ^Z,q4  po+LTf  ",
"  ,ti>c'  ,<G~o  ^m2c,  -+$]Af  ",
"  ,-i,c'  &@,n%  'c,0,  ;$2U7-  ",
"  >&i,0^  &8,*%  {co+,  ,c,x&*  ",
"  z;=,,,  ;Hz&o  }v+o>  D_:,;*  ",
"  /1%$>;  ;EY%.  {L+.2  ][1>@=  ",
"  'W7++$  q'^*.  [)+.,  ][g;@=  ",
"  'EW>+o  K`'o.  qP+.,  F[j;@=  ",
"  K,xc+.  '^z..  2v+.;  2`x>O*  ",
"  K,c2+.  GM@.@  >$O.$  2Eq,&&  ",
"  E&0>o.  ,&+.2  $+o.;  $e2,5&  ",
"  I&,;XO  +&@X;  $o..;  X22ci&  ",
"  d&$#+O  o87+#  $...;  .22Kd&  ",
"  f&.++&  Xv,X+  @..$+  +>2!f*  ",
"  f%.X,&  oc;+0  ;..+.  2$2[C-  ",
"  u@.$,O  o$+#D  O,@@.  ##8[Rr  ",
"  9@+;O.  $..+>  yF+.o  .+c''u  ",
"  m;+@Oo  G+XX.  VG..,  .$/T'b  ",
"  }m++%O  V;+..  Av.++  .>`V'I  ",
"  [H+X&y  6&XX.  R3+..  o@!S'G  ",
"  'j..qd  O+#+o  H;..+  +o!^Y8  ",
"  ';XXq7  $>0J8  >o..z  ooqG,>  ",
"  9oXX$&  cn~{,  ,O+$K  Ooo>,z  "
};
