/* XPM */
static char *_00e4015e44646c191252728760debd86AihOXVgYqkEoFZW[] = {
/* columns rows colors chars-per-pixel */
"32 32 6 1 ",
"  c black",
". c #66686B",
"X c #979A9E",
"o c #FAC2B9",
"O c #D1D5DB",
"+ c white",
/* pixels */
"                ++++++++++++++++",
"                ++++++++++++++++",
"                ++++++++++++++++",
"                ++++++++++++++++",
"                ++++++++++++++++",
"                ++++++++++++++++",
"      ....      +++...++++++++++",
"     .XXXX.     ++.XXX.+++++++++",
"     .XOOOX.    +.XOOOX.++++++++",
"     .XOOOX......XOOOOX.++++++++",
"     .XXO.XXXXXXXXXOOOX.++++++++",
"      ...XXXXXXXXXXXXX.+++++++++",
"        XXXXXXXXXXX...++++++++++",
"         XXXXXXXXX.+++++++++++++",
"       .XXXXXX XXX.++++++++o++++",
"      oXXXXXXXX.XX.+++++++o+++++",
"+++++++........XXX.       o     ",
"++++++++++.OOXXXXX.      o      ",
"++++++++++.OOXXXXXX.     o      ",
"+++++++++o.OOOXXoXX.     o      ",
"+++++++++o.OOOXXoXXX.   o       ",
"++++++++++.OOOXXX.XX.   o       ",
"++++++++++.OOOXXX.XX.   o       ",
"+++++++++oo.....oo.. ooo        ",
"++++++++++++++++                ",
"++++++++++++++++                ",
"++++++++++++++++                ",
"++++++++++++++++                ",
"++++++++++++++++                ",
"++++++++++++++++                ",
"++++++++++++++++                ",
"++++++++++++++++                "
};
