/* XPM */
static char *result[] = {
/* columns rows colors chars-per-pixel */
"32 32 9 1 ",
"  c black",
". c #343330",
"X c #4D4B46",
"o c #5E5C55",
"O c #66686B",
"+ c #7C7A70",
"@ c #979A9E",
"# c #FAC2B9",
"$ c #D1D5DB",
/* pixels */
"o.ooooo+..Xoooo+.ooooooooo.+oooo",
"o.ooooo+...oooXo+XoooooooX.ooooo",
"o.oooooo+..XoX.oo.ooooooX..Xoooo",
"X+Xoooooo...X..oo.XoooXX..+.Xooo",
"+o+XooooX.....+XX..XX+...+o++XXX",
"ooo.XooX.+...+o+++..+o..+oooo++.",
"ooX..XOOOO+.+ooooo+OOO..ooooooo.",
"Xo.+.O@@@@O.+oooooO@@@O.XoooooX.",
".X+o+O@$$$@OoooooO@$$$@Oooooooo.",
"..oooO@$$$@OOOOOO@$$$$@Oooooooo.",
"..oooO@@$O@@@@@@@@@$$$@OooooooX.",
"+.ooooOOO@@@@@@@@@@@@@O.XooooX.+",
"o.oooooX@@@@@@@@@@@OOO+..XooX.+o",
"X.ooooX. @@@@@@@@@Ooooo++.XX..oo",
".ooooX.O@@@@@@ @@@Ooooooo++#..XX",
".ooooo#@@@@@@@@O@@Oooooooo#+..++",
"+Xoooo.OOOOOOOO@@@Oooooooo#o.+oo",
"o+XXXX..+oO$$@@@@@OXooooo#XX.ooo",
"oo+....+ooO$$@@@@@@OXoooX#...ooo",
"ooo+...oo#O$$$@@#@@O+XX++#.+.Xoo",
"oooo...Xo#O$$$@@#@@@O+.o#X+o+.oo",
"oooX...oooO$$$@@@O@@O+.o#+ooo.Xo",
"XXX+...XooO$$$@@@O@@Oo.o#oooX..X",
"+.+o+++.X##OOOOO##OOo###+oooo+..",
"o.ooooo+.......ooooooo..oooooo.+",
"o.oooooo..++...ooooooo.+oooooX.+",
"o.oooooo.+oo+..ooooooX.ooooooo.o",
"o.oooooo.oooo+.oooooX..XoooooX.o",
"X.XooooX.oooo+.XoooX....ooooX.+X",
"...XoXX..ooooo+.XXX+++++XXXX..o+",
"+..+++...oooooo..++ooooo+....+oo",
"o.+ooo+..Xooooo..oooooooo+..+ooo"
};
