/* XPM */
static char *_5331def046e4f28bdd51f1950530369JxVfQ7LGNbz9F092[] = {
/* columns rows colors chars-per-pixel */
"32 32 4 1 ",
"  c #343330",
". c #4D4B46",
"X c #5E5C55",
"o c #7C7A70",
/* pixels */
"X XXXXXo  .XXXXo XXXXXXXXX oXXXX",
"X XXXXXo   XXX.Xo.XXXXXXX. XXXXX",
"X XXXXXXo  .X. XX XXXXXX.  .XXXX",
".o.XXXXXX   .  XX .XXX..  o .XXX",
"oXo.XXXX.     o..  ..o   oXoo...",
"XXX .XX. o   oXooo  oX  oXXXXoo ",
"XX.  .. oXo oXXXXXo XX  XXXXXXX ",
".X o    XXX oXXXXXXoXX  .XXXXX. ",
" .oXoo  XXX XXXXXXXo..  XXXXXXX ",
"  XXXXo .X. XXXXXXXX    XXXXXXX ",
"  XXXXXo .  .XXXXXX.    XXXXXX. ",
"o XXXXXX   o XXXXX. oo  .XXXX. o",
"X XXXXX.o  X .XXX. oXXo  .XX. oX",
". XXXX. Xo .  ... oXXXXoo ..  XX",
" XXXX. oXX o      XXXXXXXoo   ..",
" XXXXX XX.oXo  oo XXXXXXXXXo  oo",
"o.XXXX ..oXXXo XX .XXXXXXXXX oXX",
"Xo....  oXXXXo .X  .XXXXXX.. XXX",
"XXo    oXXXXXX  . oo.XXX.o   XXX",
"XXXo   XXXXXXX   oXXo..ooX o .XX",
"XXXX   .XXXXXX  oXXXXo XX.oXo XX",
"XXX.   XXXXXX. oXXXXXo X.oXXX .X",
"...o   .XX...  oXXXXXX XoXXX.  .",
"o oXooo ..     XXXXXXX .oXXXXo  ",
"X XXXXXo       XXXXXXX  XXXXXX o",
"X XXXXXX  oo   XXXXXXX oXXXXX. o",
"X XXXXXX oXXo  XXXXXX. XXXXXXX X",
"X XXXXXX XXXXo XXXXX.  .XXXXX. X",
". .XXXX. XXXXo .XXX.    XXXX. o.",
"   .X..  XXXXXo ...ooooo....  Xo",
"o  ooo   XXXXXX  ooXXXXXo    oXX",
"X oXXXo  .XXXXX  XXXXXXXXo  oXXX"
};
