/* XPM */
static char *_109cf56e199408e955cbd4d6c6ffc3fZG5gkoGfhPYRQ0YZ[] = {
/* columns rows colors chars-per-pixel */
"32 32 2 1 ",
"  c black",
". c white",
/* pixels */
"                                ",
"                                ",
"                                ",
"                                ",
"                                ",
"                                ",
"                                ",
"                                ",
"                                ",
"                                ",
"                                ",
"                                ",
"    .     .  ..  .    .         ",
"    .     . .  . .    .         ",
"    .     . .  . .    .         ",
"    .     . .... .    .         ",
"    .  .  . .  . .    .         ",
"    .  .  . .  . .    .         ",
"     .. ..  .  . .... .... .    ",
"                                ",
"                                ",
"                                ",
"                                ",
"                                ",
"                                ",
"                                ",
"                                ",
"                                ",
"                                ",
"                                ",
"                                ",
"                                "
};
