/* XPM */
static char *_ba9164b3d654177a8ac84707437beb8vY6OsbujgGRQBod7[] = {
/* columns rows colors chars-per-pixel */
"32 32 4 1 ",
"  c #121317",
". c #333836",
"X c #3F4243",
"o c #5D5C62",
/* pixels */
" oooooooooo ooo ...........o ...",
" XXXXXXXXXX oXo XXXXXXXXXXo XXX.",
" XXXXXXXXX  oXo XXXXXXXXXo XXXX.",
" XXXXXXXXX oXXo XXXXXXXXo XXXXX.",
" XX       oXXXo XXXXXXXXo XXXXX.",
" X oooooooXXXXo XXXXXXXXXo  XXX.",
"  o...........o XXXXXXXXXXoo XX.",
"                                ",
"....... ooo oooo   ooo .X oo....",
"XXXXXX. XXX oXo XXXXXo XXX  oXXX",
"XXXXXX.    oXXo XXXXXo XX oX oXX",
"XXXXXX. oooXXXXo XXXXo XXX oXXXX",
"XXXXXX. XXXXXXXo XXXXo XXX oXXXX",
"XXXXXX. XXXXXXo XXXXXo XXXXXXXXX",
"XXXXXX. .....o ......o XXXXXXXXX",
"                                ",
" .............  oooooooooooooooo",
" .XXXXXXXXXXX . XXo XXXXXXXXXXXo",
" .XXXXXXXXXX o. XXXo XXXX XXXXXo",
" .XXXXXXXXX  o. XXXXo  X o XXXXo",
" .XXXXXXXX ooX. XXXXXoo oXoXXXXo",
" .XXXXXXXXoXXX. XXXXXXo XXXXXXXo",
" .............. ...... ........o",
"                                ",
"o ooooo oooooooooooooo ooooooooo",
"X oXXX. XXXXXXXXXXXXXo XXXXXXXXX",
"X oXXX. XXXXXXXXXXXXXo XXXXXXXXX",
"X oXXX. XXXXXXXXXXXXXo XXXXXXXXX",
" ooXXX. XXXXXXXXXXXXXo XXXXXXXX ",
"oXXXXX. XXXXXXXXXXXXXo XXXXXXX o",
"XXXXXX. XXXXXXXXXXXXXo XXXXXX oX",
"                                "
};
