/* XPM */
static char *cfe8d562780f4cd7aba3262758c1d386LJfbtszKvGlWSTkM[] = {
/* columns rows colors chars-per-pixel */
"32 32 119 2 ",
"   c #1C1C1A",
".  c #1D1C1B",
"X  c #232321",
"o  c #31302E",
"O  c #32312F",
"+  c #33322E",
"@  c #33322F",
"#  c #34332F",
"$  c #343330",
"%  c #343331",
"&  c #4C000F",
"*  c #403E3A",
"=  c #403F3A",
"-  c #62202D",
";  c #44423D",
":  c #44433F",
">  c #454440",
",  c #4B4A45",
"<  c #4D4B46",
"1  c #4D4B47",
"2  c #4D4C47",
"3  c #4E4D48",
"4  c #504E48",
"5  c #514F49",
"6  c #514F4B",
"7  c #51504A",
"8  c #51504B",
"9  c #52504A",
"0  c #50504F",
"q  c #54534C",
"w  c gray32",
"e  c #535352",
"r  c #575655",
"t  c #575756",
"y  c #5C5A53",
"u  c #5D5B54",
"i  c #5E5C55",
"p  c #595958",
"a  c #5A5958",
"s  c #5C5C5A",
"d  c #5E5E5C",
"f  c #5E5E5D",
"g  c #626059",
"h  c #60605F",
"j  c #61615F",
"k  c #65635C",
"l  c #66645D",
"z  c #66655E",
"x  c #67655E",
"c  c #616160",
"v  c #676766",
"b  c #6B6A61",
"n  c #6B6A68",
"m  c #7A786E",
"M  c #767572",
"N  c #7C7A70",
"B  c gray48",
"V  c gray49",
"C  c #88001B",
"Z  c #EC1C24",
"A  c #CC5300",
"S  c #FF7F27",
"D  c #838383",
"F  c #848484",
"G  c #868686",
"H  c #888888",
"J  c #898989",
"K  c #8D8D8D",
"L  c #8E8E8E",
"P  c #909090",
"I  c gray57",
"U  c #929292",
"Y  c gray58",
"T  c #959595",
"R  c #989898",
"E  c gray60",
"W  c gray61",
"Q  c #9D9D9D",
"!  c gray62",
"~  c #9F9E9E",
"^  c #9F9F9F",
"/  c gray63",
"(  c gray64",
")  c #A4A4A4",
"_  c #A5A5A5",
"`  c gray65",
"'  c #A7A7A7",
"]  c gray66",
"[  c #AAAAAA",
"{  c gray67",
"}  c gray68",
"|  c #AFAFAF",
" . c #B1B1B1",
".. c #B2B2B2",
"X. c gray70",
"o. c #B4B4B4",
"O. c gray71",
"+. c #B7B7B7",
"@. c gray72",
"#. c #B9B9B9",
"$. c gray73",
"%. c #BBBBBB",
"&. c #BCBCBC",
"*. c gray74",
"=. c gray75",
"-. c #C0C0C0",
";. c #C1C1C1",
":. c gray76",
">. c #C5C5C5",
",. c #C6C6C6",
"<. c gray78",
"1. c gray79",
"2. c #CACACA",
"3. c #D0D0D0",
"4. c #D8D8D8",
"5. c gray85",
"6. c gainsboro",
"7. c #DFDFDF",
"8. c #E4E4E4",
/* pixels */
"i $ i i i i i N $ $ < i i i i N $ i i i i i i i i i $ N i i i i ",
"i $ i i i i i N $ $ $ i i i < i N < i i i i i i i < $ i i i i i ",
"i $ i i i i i i N $ $ < i < $ i i $ i i i i i i < $ S S i i i i ",
"< N < i i i i i i $ $ $ < $ $ i i $ < i i i < < $ S C C S i i i ",
"N i N < i i i i < $ $ $ $ $ N < < $ $ < < N $ $ $ A & & A , < < ",
"i i i $ < i i < $ N $ $ $ N i N N N $ $ N i $ $ N C - - C m N $ ",
"i i < $ $ < < $ N i N $ N i i i i i N $ i i $ $ i U - E - y i $ ",
"< i $ N C $ $ $ i i i $ N i i C i i i N i i $ $ < U Q / U y < $ ",
"$ < N i C C $ $ i i i $ i i C C y i i N < < $ $ i i U / T y i $ ",
"$ $ i i C C g O : 8 : O 3 2 C C y i i i $ $ $ $ i i U / T y i $ ",
"$ $ i i B T H T [ +.[ Q T H T F < i i < $ $ $ $ i i U / T y < $ ",
"N $ i < F E ' X.-.2.-.@.+.' E E V 5 > $ l l $ $ < i T ' E , $ N ",
"i $ i B ' ' H *.2.2.2.2.U X.' ' V *.-.*.*.-.l $ $ < Q X./ O N i ",
"< $ i B X.X.Z <.2.X.2.2.Z *.+.X.T 5.8.6.6.8.-.*.l $ Q *./ O i i ",
"$ i i B *.-.C <.X.T X.2.C <.-.-.2.3.5.8.6.5.8.6.X.k [ 2.' O < < ",
"$ i i V 2.2.2.2.T 2.T 2.2.2.2.2.2.2.3.5.5.3.5.5.3.} 2.2.' O N N ",
"N < i H 2.2.2.2.2.2.2.2.2.2.2.2.2.2.2.3.3.2.3.3.2.2.2.2.' m i i ",
"i N < U 2.2.2.2.2.2.2.2.2.2.2.2.2.2.2.2.2.2.2.2.2.2.2.*.c u i i ",
"i i N T 2.2.2.2.2.2.2.2.2.2.2.2.2.2.2.2.2.2.2.2.2.2.2.' O i i i ",
"i i i Q 2.2.2.2.2.2.2.2.2.2.2.2.2.2.2.2.2.2.2.2.2.2.*.M O < i i ",
"i i i n *.2.2.2.2.2.2.2.2.2.2.2.2.2.2.2.2.<.2.2.2.<.Q y N $ i i ",
"i i i < Q <.2.2.2.<.2.2.2.2.2.2.2.2.2.<.-.@.-.<.<.} h u i $ < i ",
"< < < N f X.<.<.-.[ -.<.<.-.@.@.@.@.@.X.' ' [ @.@.F y i < $ $ < ",
"N $ N 8 b T +.+./ r Q +.+./ c v v v v v h F U [ [ V 5 8 8 N $ $ ",
"i $ 8 # O r T E e . 0 T E e . O O O O O O r D K K p O O O 5 $ N ",
"i $ = O O O r p . . : s e . . O O O O O O O 0 f p O O O O # $ N ",
"i $ i = = = = = X q = = q X X = = = = = = # X = = = = = = u $ i ",
"i $ i i i i i i $ i i i i N $ i i i i i < $ $ < i i i i i < $ i ",
"< $ < i i i i < $ i i i i N $ < i i i < $ $ $ $ i i i i < $ N < ",
"$ $ $ < i < < $ $ i i i i i N $ < < < N N N N N < < < < $ $ i N ",
"N $ $ N N N $ $ $ i i i i i i $ $ N N i i i i i N $ $ $ $ N i i ",
"i $ N i i i N $ $ < i i i i i $ $ i i i i i i i i N $ $ N i i i "
};
