/* XPM */
static char *result[] = {
/* columns rows colors chars-per-pixel */
"32 32 100 2 ",
"   c black",
".  c #010101",
"X  c gray4",
"o  c #0B0B0B",
"O  c #0C0C0C",
"+  c gray6",
"@  c #101010",
"#  c #111111",
"$  c gray18",
"%  c gray28",
"&  c gray29",
"*  c #4B4B4B",
"=  c #4E4E4E",
"-  c #585858",
";  c gray35",
":  c gray36",
">  c #6D6D6D",
",  c gray44",
"<  c #717171",
"1  c #727272",
"2  c gray45",
"3  c #747474",
"4  c gray47",
"5  c gray48",
"6  c #7C7C7C",
"7  c gray49",
"8  c gray50",
"9  c #808080",
"0  c #818181",
"q  c #838383",
"w  c #848484",
"e  c gray52",
"r  c #868686",
"t  c gray53",
"y  c #888888",
"u  c #898989",
"i  c gray54",
"p  c #8B8B8B",
"a  c gray55",
"s  c #8D8D8D",
"d  c #8E8E8E",
"f  c gray56",
"g  c #909090",
"h  c gray57",
"j  c #929292",
"k  c #939393",
"l  c gray58",
"z  c #959595",
"x  c #989898",
"c  c gray60",
"v  c gray61",
"b  c #9D9D9D",
"n  c gray62",
"m  c gray63",
"M  c gray64",
"N  c #A4A4A4",
"B  c #A5A5A5",
"V  c gray65",
"C  c #A7A7A7",
"Z  c gray66",
"A  c #A9A9A9",
"S  c #AAAAAA",
"D  c gray67",
"F  c gray68",
"G  c #AFAFAF",
"H  c #B1B1B1",
"J  c #B2B2B2",
"K  c gray70",
"L  c #B4B4B4",
"P  c gray71",
"I  c #B7B7B7",
"U  c gray72",
"Y  c #B9B9B9",
"T  c gray73",
"R  c #BBBBBB",
"E  c #BCBCBC",
"W  c gray74",
"Q  c gray75",
"!  c #C0C0C0",
"~  c #C1C1C1",
"^  c gray76",
"/  c #C3C3C3",
"(  c #C5C5C5",
")  c #C6C6C6",
"_  c gray78",
"`  c gray79",
"'  c #CACACA",
"]  c #D0D0D0",
"[  c #D8D8D8",
"{  c gray85",
"}  c gray86",
"|  c gainsboro",
" . c #DDDDDD",
".. c #DFDFDF",
"X. c #E4E4E4",
"o. c gray98",
"O. c #FBFBFB",
"+. c #FDFDFD",
"@. c #FEFEFE",
"#. c white",
/* pixels */
"                                #.#.#.#.#.#.#.#.#.#.#.#.#.#.#.#.",
"                                #.#.#.#.#.#.#.#.#.#.#.#.#.#.#.#.",
"        X X                     #.#.#.#.#.#.#.#.#.#.#.#.#.#.#.#.",
"      o 3 , X                   #.#.#.#.#.#.#.#.#.#.#.#.#.#.#.#.",
"      < 9 8 >                   #.#.#.#.#.#.#.#.#.#.#.#.#.#.#.#.",
"      4 s a 3                   #.#.#.#.#.#.#.#.#.#.#.#.#.#.#.#.",
"      s c c t                   #.#.#.#.#.#.#.#.#.#.#.#.#.#.#.#.",
"      z M b %                   Q #.#.#.#.#.#.#.#.#.@.Q #.#.#.#.",
"      z M f                     6 Q #.#.#.#.#.#.#.@.E 7 #.#.#.#.",
"      z M f                     6 q Q ! ~ ^ / ^ ! E q 7 #.#.#.#.",
"      z M f                   O w z y z b D I S l y l 7 #.#.#.#.",
"      c C k         + + + + @ 7 c c C L U ! ' ! K C c t Q #.#.#.",
"      M K b     + # ! W W ! E 7 C C K j ' ' ' ' Q u C V 7 #.#.#.",
"      M Q b   @ W ~ X.| ..X.[ l K L W $ ' ' K ' _ $ K J 7 #.#.#.",
"      N ` A + J | X.{ | X.{ ] ' ! ! _ : ' J l K _ : ! Q 7 #.#.#.",
"      N ' ` G ] { { ] { { ] ' ' ' ' ' ' ` l ` l ' ' ' ` 9 #.#.#.",
"#.#.o.N ' ' ' ' ] ] ' ] ] ' ' ' ' ' ' ' ' ' ' ' ' ' ' ` t       ",
"#.#.O.v Q ' ' ' ' ' ' ' ' ' ' ' ' ' ' ' ' ' ' ' ' ' ' ` f       ",
"#.#.#.o.N ' ' ' ' ' ' ' ' ' ' ' ' ' ' ' ' ' ' ' ' ' ' ` k       ",
"#.#.#.O.v Q ' ' ' ' ' ' ' ' ' ' ' ' ' ' ' ' ' ' ' ' ' ` b       ",
"#.#.#.#.o.v ) ' ' ' ) ' ' ' ' ' ' ' ' ' ' ' ' ' ' ' ' E =       ",
"#.#.#.#.O.g F ) ) ^ Y ^ ) ' ' ' ' ' ' ' ' ' ) ' ' ' ( b         ",
"#.#.#.#.#.o.r U U Z B B H T T T T R ^ ) ) ^ S ^ ) ) K =         ",
"#.#.#. . .{ 7 Z Z h e 5 0 0 0 0 - ; m P L n * m P L j           ",
"#.#.} p p i 2 d s w 1 p p p p p   . * x z % . * x z %           ",
"#.+.F p p p i 2 2 1 p p p p p p     . & %     . & %             ",
"#.#.+.F F F F F F F F F F F F F                                 ",
"#.#.#.#.#.#.#.#.#.#.#.#.#.#.#.#.                                ",
"#.#.#.#.#.#.#.#.#.#.#.#.#.#.#.#.                                ",
"#.#.#.#.#.#.#.#.#.#.#.#.#.#.#.#.                                ",
"#.#.#.#.#.#.#.#.#.#.#.#.#.#.#.#.                                ",
"#.#.#.#.#.#.#.#.#.#.#.#.#.#.#.#.                                "
};
