/* XPM */
static char *d1d0b8dfb61047b48ed6228d913d8a6fJLL6bTCCWEzsiSor[] = {
/* columns rows colors chars-per-pixel */
"32 32 4 1 ",
"  c #3E1C00",
". c #502A00",
"X c #5C3500",
"o c #6E4906",
/* pixels */
"oo .....XXXXo XX..Xo oXXo .X. oo",
"XXo     .... .X.  . oXXX.o . oXX",
"XXo oooo     ..  o  XXX...   .XX",
"... XXXo oooo   oXXXXX.   oo .X.",
"    .X. oXXX. o  .XXX. oooXo .. ",
"oooo .  ..X. oXoo ... oXXXXXo  o",
"XXXXo oo ... XXXXo   oXXXXXX.  .",
".XXXo ..     .XXX oo .XXXXX. oo ",
"...X .. ooooo .X. oXo .XXX. oXo ",
"   .   oXXXXX  . oXXo ..... oXXo",
"ooo ooo ..XXX o oXXXXo     oXXXX",
"Xo oXXXo  ... oo .XXX ooooo .XXX",
".. .XXX. o   oXX ... oXXXXXo ..X",
"   .... oXoo ...     .XXXXXXo  .",
"ooo     oXXo    ooooo .XX... oo ",
"XXXooooo XXX oo oXXXXo ..   oo o",
"XXXXXX. XXX oXXo XXXXXo  oooX. .",
"...  . .XXX XXXXo X    ooXXXX o ",
"   oo  .XXX. XXXXo ooo  .XXX. oo",
"oo XXoo .XX. .X..  oXXoo .X. oXX",
"XXo XXXo ... ..  o .XXXXo .. XXX",
"XX o XXXo    . ooXo .XXXo  . XXX",
"X oo  XX oooo  oXXo ..XXo o   XX",
" oX oo  oXXXX oXXXo   .. oXooo  ",
"oXX XXo .XXXX oXXXo oo  oXXXXo o",
"XXX XXXo .XXX .XXXo oXo .XXXXo o",
"XXX .XX.o .XX. .XX. oXXo .XX. oX",
"XXX. ..  o ... ... oXXXo ...  ..",
"....   ooXo        .XX.     oo  ",
"    oooXXXo oooooo ... oo ooXXoo",
"o ooXXXXXXo XXXXXXo   oXo XXXX..",
"  .XXXXXXXXo XXXXXXo oXXo XXX.  "
};
