/* XPM */
static char *result[] = {
/* columns rows colors chars-per-pixel */
"32 32 94 2 ",
"   c #8C031C",
".  c #8F081B",
"X  c #92051C",
"o  c #9C061D",
"O  c #930A1C",
"+  c #9B0D1D",
"@  c #97101C",
"#  c #9B121D",
"$  c #A0071D",
"%  c #A40A1E",
"&  c #AA0B1E",
"*  c #B40C1F",
"=  c #B90E1F",
"-  c #A4141E",
";  c #AA161E",
":  c #A51A1E",
">  c #AA1D1E",
",  c #B3161F",
"<  c #B31C1F",
"1  c #AA211E",
"2  c #B2251F",
"3  c #B52B1F",
"4  c #BC0F20",
"5  c #BE1120",
"6  c #BA1B20",
"7  c #B12420",
"8  c #BE2620",
"9  c #B62D20",
"0  c #BA2C20",
"q  c #B53020",
"w  c #BC3320",
"e  c #C21120",
"r  c #CB1321",
"t  c #C31B21",
"y  c #C91B21",
"u  c #D31522",
"i  c #DA1722",
"p  c #D01921",
"a  c #DE1823",
"s  c #E41A23",
"d  c #EC1C24",
"f  c #C42321",
"g  c #CB2721",
"h  c #C12C21",
"j  c #CA2E22",
"k  c #D12B22",
"l  c #DB2B23",
"z  c #DE2229",
"x  c #C43421",
"c  c #CA3622",
"v  c #C43B21",
"b  c #CC3C22",
"n  c #D33022",
"m  c #DC3423",
"M  c #D33D22",
"N  c #DB3923",
"B  c #E72523",
"V  c #ED2324",
"C  c #EE2B24",
"Z  c #F02F25",
"A  c #E33124",
"S  c #EA3024",
"D  c #E13923",
"F  c #F13425",
"G  c #F23B25",
"H  c #C74021",
"J  c #CA4222",
"K  c #D44322",
"L  c #DB4623",
"P  c #D34C23",
"I  c #DB4923",
"U  c #D65223",
"Y  c #DD5323",
"T  c #E34324",
"R  c #E44C24",
"E  c #EC4E25",
"W  c #F34325",
"Q  c #F54C25",
"!  c #E45424",
"~  c #EB5325",
"^  c #E25A24",
"/  c #EC5A25",
"(  c #F75426",
")  c #F85626",
"_  c #F55C26",
"`  c #F85B26",
"'  c #EA6325",
"]  c #EE6925",
"[  c #F56425",
"{  c #FA6326",
"}  c #F36C26",
"|  c #FB6C26",
" . c #FD7427",
".. c #FE7A27",
/* pixels */
"d d ` { ( { [ > % a G .. .d d S |  .Q 4 % r { { W { |  .{ V d d ",
"d d ` { Q  .K - 4 d d  . .F d W {  .{ m & ; { ( C { |  .| F d d ",
"d d { { )  .2 % u d d | ..( s N { |  .` * % L ( d ` |  . .G d d ",
"d d { { ` ..; % d d d `  .( 4 - !  . .G r % c Q d G |  . .W d d ",
"d V { ` { ..> % s d d _  .( 4 ; / .. .d s - 1 { { C { .. .G d d ",
"d C { ( (  .x % r d d { ..Q 4 - ^ ..{ d d ; : } { V ( .. .F d d ",
"d F { Q V  .^ % & d G |  .Q % $ ^ ..| Z d < > / ( u Q ....d d d ",
"d W { W d v / 2 % r _ { | T o O ' | { E d 6 > Y m $ 0 ]  .d d d ",
"d Q { F u : J L % - ~ ) { E X O } ` _ > < 3 1 ~ l o @ q { d d d ",
"d b 0 B u - J { 4 ; 0 G { ` X X ] ( D > w 3 1 A i X O U W d d d ",
"d x ; r u : v [ S > ; 6 K ( X . Y ( M 1 v > > d * X # | F d d d ",
"d I > = u ; v { W x + + ; m $ X v | v > 9 : 8 r - # 1 Y 6 = d d ",
"d _ > % u : 9 ( ( K & 6 : - $ X q  .v O + > c % > v > c % & d d ",
"d Q x % * > > > 8 c - K x % X X q ..b X   : f % H ] ; > - & d d ",
"d G _ < % # > - ; 1 - ! E o   O w  .Y O   > - ; ] | < - + * d d ",
"d C { ~ > + O # o > 0 { ` &   X R  .' .   > 7 - } | f - + * d d ",
"d d ` ! ~ - X X   - L { {     < g 3 ^ O   : x : J | k - + * d d ",
"d d I > v v @     % { ` x     m 6 1 v X   - ^ 1 1 [ c : o & d d ",
"d G I : x 7 O     % K m +   @ C j - : o   #  .x 1 Y 3 > % % i d ",
"Z { R - 9 : X X % - - - O   1 G P # O X   # { b # w 1 > 5 % r d ",
"` { D % > # O X 5 6 . - # O - ~ ! # X     - E - O 1 1 v u % = d ",
"{ ( s % # @ @ $ r %   7 , O @ w Q #     X # <     1 1 I s % & d ",
"Q d d %   O O # u X O b : O O : r +     # O X X O : 1 / d & % s ",
"d d d %   X : & i o X x - O q % o #   X O X   X 1 # 1 { Z = $ u ",
"d d r +   # > $ a $   O @ O H & X $ : + +       @ @ 3 | W e % r ",
"d d h @   - +   r j % O O O -     t J +   X O     O v { { y % r ",
"( ) M - O # o X 6 [ K O   .     $ B K     ; +     @ _ W { n % e ",
"{ ....M O X $ $ : I A % . .     5 F v . O O O     : [ Z { N % = ",
"`  .| L O   - e > 0 5 % X       r Q 7 O     + h . + / G { K % e ",
"G { { j     0 d : ; $ @ @ @     6 K #     + l ! O X / ) E 7 % u ",
"d Q { -   O 9 6 : O # : 9 P 7 X # : X     x { L X X h K 7 ; 6 d ",
"d d 8 O     + - ; : v N (  .: O : ; o O # I ~ - o X   : : w W s "
};
