/* XPM */
static char *_930bbbd5a634c60bcc63cd291f3d567Z1egze1QvewGykDz[] = {
/* columns rows colors chars-per-pixel */
"32 32 7 1 ",
"  c #1B1B19",
". c #301B13",
"X c #33211A",
"o c #372219",
"O c #242321",
"+ c #50342C",
"@ c #453B39",
/* pixels */
"OOOOOOOoOOOOOOOOOOOOOOOOOOOOOOOo",
"@OOOOOOO@OOOOOOO@OOOOOoO@OOOOOOO",
" @OOOOO@ @OOOOO@ @OOOOO@ @OOOoo@",
"O @OOOOOO +OOOOOO @OOOOOO @OOOOO",
"OOoOOOOOOOOOOOOOoOOOOOOOOOOOOOOO",
"O@OOoOOOO@OOOOOOo@OOOOoOO@OOooOO",
"@ @OOOOo+ @OOOOO@ @OOOOO@ @OOoOO",
" OOOOOO@ OOOOOO@ OOOOoO@ OOOOOO@",
"OOOOOOOoOOOOOOOOOOOOOOOOOOOOOOOo",
"@OOOOOoO@OoOOOOo@OOOOOOO+OoOOOOO",
" @OOOOO+ @OOOOO@ @OOOOO@ @OOOOO@",
"O.@OOoOoO +OOOOOo +OOoOOo.@OoOOO",
"OoOOOOOOOOOOOOOOOOoOOOOOoOOoOOOO",
"O@OOoOOOO@OOOOOOo@oOOoOOO+OOOOOO",
"@ +OoOOO@ @OOOOo@ @oOoOO@ @OOOOO",
" OOOoOO@ oOOOOO@ OOOOOO@ OOoOOO@",
"OOOOOOOOOOOOoOooOOOooOOOOOoOoOoO",
"@OOOOOoO+OoOOOOO@OOOOOOO@OOOOOOO",
".+OOOOO@ @OOOOO@ +OOooO@ @OOOOO@",
"O @OOOOOO +OoOoOo @OOoOOO +OOOOO",
"OOOOOOOOOOOOOOOOOOOOOOOOOOOoXOOO",
"O@OOOOOOO@OOOOOOO+OOOOOOO@OOOOOO",
"@ @OOOOO@ +OOOOO+ @OOOOO@ @OOOoO",
" OOOOOO@ OOOoOO@ OOOOOO@ OOOOOO@",
"OOOOOoOOOooOOoOOOOOOOOOOOOOOOOOO",
"@OoOOOoO@OoOOoOO@OOOOOOO+OOOOOOo",
" @OoOOO@ @OOOOO@ @OOOOO@ @OOoOO@",
"O @OOOOOO @OOOOOO @OOoOOO @OoOOO",
"OOOOOOOOOOOoOOOOOOOOOOOOOOOOOOOO",
"O+OoOOOoO@OoOOOOO@OOOOoOO@OOOOOo",
"@ @OOOOo@ @OOOOO@ @OOOOO@ @OOOOO",
" OOOOOO@ OoOoOO@.OOOOOO@ OOOOOo@"
};
