/* XPM */
static char *_3b6b046f1964046908ec039fa0fd3bbz0R3K9VXT1FOreUq[] = {
/* columns rows colors chars-per-pixel */
"32 32 2 1 ",
"  c black",
". c white",
/* pixels */
"                                ",
" .............................. ",
" .............................. ",
" .............................. ",
" .............................. ",
" .............................. ",
" ..... ..... ......   ......... ",
" .....  .... ...       ........ ",
" .....   ... ... .....  ....... ",
" ..... .  .. ..  ...... ....... ",
" ..... ..  . ..  ...... ....... ",
" ..... ...   ...  ..... ....... ",
" ..... ....  ....       ....... ",
" ..... ....  .................. ",
" .............................. ",
" .............................. ",
" .............................. ",
" .............................. ",
" ...    ....................... ",
" ... ... ......... ............ ",
" ... ... ..  ...     .    ..... ",
" ...     .     ... ... .. ..... ",
" ... ..... ... ... ... ........ ",
" ... .....     ... ...    ..... ",
" ... ..... ....... ...... ..... ",
" ... .....     ... ..     ..... ",
" .............................. ",
" .............................. ",
" .............................. ",
" .............................. ",
" .............................. ",
"                                "
};
